<?xml version="1.0" encoding="UTF-8" standalone="no"?>
<!-- Created with Inkscape (http://www.inkscape.org/) -->

<svg
   xmlns:dc="http://purl.org/dc/elements/1.1/"
   xmlns:cc="http://creativecommons.org/ns#"
   xmlns:rdf="http://www.w3.org/1999/02/22-rdf-syntax-ns#"
   xmlns:svg="http://www.w3.org/2000/svg"
   xmlns="http://www.w3.org/2000/svg"
   xmlns:sodipodi="http://sodipodi.sourceforge.net/DTD/sodipodi-0.dtd"
   xmlns:inkscape="http://www.inkscape.org/namespaces/inkscape"
   width="279.06952"
   height="184.91156"
   id="svg2"
   version="1.1"
   inkscape:version="0.48.4 r9939"
   sodipodi:docname="basechart-bad.svg">
  <defs
     id="defs4" />
  <sodipodi:namedview
     id="base"
     pagecolor="#ffffff"
     bordercolor="#666666"
     borderopacity="1.0"
     inkscape:pageopacity="0.0"
     inkscape:pageshadow="2"
     inkscape:zoom="1.979899"
     inkscape:cx="84.89039"
     inkscape:cy="56.457496"
     inkscape:document-units="px"
     inkscape:current-layer="layer1"
     showgrid="false"
     inkscape:snap-page="true"
     inkscape:window-width="1600"
     inkscape:window-height="849"
     inkscape:window-x="-3"
     inkscape:window-y="28"
     inkscape:window-maximized="1"
     fit-margin-top="0"
     fit-margin-left="0"
     fit-margin-right="0"
     fit-margin-bottom="0" />
  <metadata
     id="metadata7">
    <rdf:RDF>
      <cc:Work
         rdf:about="">
        <dc:format>image/svg+xml</dc:format>
        <dc:type
           rdf:resource="http://purl.org/dc/dcmitype/StillImage" />
        <dc:title />
      </cc:Work>
    </rdf:RDF>
  </metadata>
  <g
     inkscape:label="Layer 1"
     inkscape:groupmode="layer"
     id="layer1"
     transform="translate(-129.52116,-249.96357)">
    <path
       style="fill:#000000;fill-opacity:1;fill-rule:nonzero;stroke:none"
       id="path3001"
       d="m 136.14865,249.9636 c -0.46993,9.91255 0.0504,19.83027 0.49832,29.73249 1.38844,22.90717 2.74849,45.81539 3.74392,68.74343 0.6532,17.87418 1.13113,35.75475 1.42511,53.63839 0.0836,6.41445 0.3026,12.82737 0.33531,19.24246 -0.0408,2.71861 0.10653,5.44139 -0.002,8.15851 0.25555,0.098 -0.31431,1.05455 0.0447,1.29438 0.12121,0.081 0.28898,-0.0397 0.43197,-0.0681 0.65393,-0.12948 1.30259,-0.28556 1.95838,-0.40523 1.5536,-0.2835 3.11058,-0.54863 4.66903,-0.80414 2.72092,-0.4461 5.44589,-0.8671 8.16883,-1.30065 24.22692,-3.85317 48.70045,-6.05538 73.19082,-7.33558 6.05579,-0.31656 12.11689,-0.52154 18.17534,-0.78232 33.61406,-1.16544 67.24846,-1.42363 100.87858,-1.70932 14.31043,-0.11029 28.62058,-0.25159 42.92984,-0.46572 3.8879,-0.0637 7.77638,-0.031 11.66459,-0.0375 1.44313,-0.002 2.88622,-0.0135 4.32929,-0.0253 0,0 -5.96762,4.33563 -5.96762,4.33563 l 0,0 c -1.419,-0.0122 -2.83802,-0.0245 -4.25708,-0.0277 -3.83117,-0.0119 -7.66305,0.0105 -11.49331,-0.0893 -13.8415,-0.31629 -27.68589,-0.48269 -41.53084,-0.54593 -33.42193,-0.10682 -66.85477,-0.008 -100.25675,1.28152 -6.09476,0.2911 -12.19246,0.52622 -18.2843,0.8733 -24.89507,1.4184 -49.76822,3.77069 -74.31549,8.24845 -2.87699,0.55369 -5.75722,1.09081 -8.63097,1.66108 -1.68508,0.33439 -3.353,0.75627 -5.04515,1.05281 -2.12135,0.37175 -3.6687,0.66591 -3.28627,-1.8255 0.23005,-2.71888 0.0499,-5.46001 0.15019,-8.18507 0.0699,-6.52424 0.30491,-13.04627 0.32318,-19.57142 0.0858,-18.01265 0.056,-36.02948 -0.60828,-54.03288 -0.35959,-9.26185 -0.53929,-14.91016 -1.06186,-24.20011 -0.83144,-14.78083 -2.14368,-29.52781 -3.13283,-44.2979 -0.74001,-9.71515 -1.46586,-19.43154 -1.67214,-29.17609 0,0 6.62718,-3.37672 6.62718,-3.37672 z"
       inkscape:connector-curvature="0" />
    <path
       style="fill:#000000;fill-opacity:1;fill-rule:nonzero;stroke:none"
       id="path3070"
       d="m 155.86423,387.59879 c -0.0843,2.79117 -0.0746,5.58478 -0.061,8.37698 -0.0794,2.85574 0.13094,3.81542 1.91198,6.01556 0.91637,0.88977 1.81145,1.9262 3.01062,2.44981 0.65841,0.28749 1.21202,0.35315 1.91666,0.49211 2.86559,0.67668 5.76879,1.18104 8.67416,1.65282 1.86443,0.13189 3.7999,0.70344 5.68302,0.47621 1.04211,-0.12575 1.67229,-0.47399 2.62497,-0.87819 -1.63321,0.90677 -3.21072,1.92208 -4.89964,2.72032 -0.49194,0.23251 0.87938,-0.64448 1.282,-1.01049 1.83166,-1.66512 3.25443,-3.745 4.63684,-5.77743 1.92532,-2.87316 2.51275,-5.28891 2.86143,-8.66403 0.29664,-5.18301 0.25889,-10.3791 0.25504,-15.56867 -0.0383,-4.97235 -0.0594,-9.94484 -0.0982,-14.91718 0.0104,-3.77997 -0.13066,-7.55941 0.15687,-11.33134 0.20337,-2.86011 1.18453,-5.48577 2.82984,-7.81115 2.76351,-2.96618 6.46752,-5.57618 10.52459,-6.19125 1.93675,-0.0559 3.9629,-0.35567 5.88555,0.0179 0.39195,0.0761 0.76711,0.2219 1.15067,0.33285 2.34348,1.06436 3.28885,2.69529 4.05144,5.04988 1.34741,4.84856 2.02629,9.84938 2.96458,14.78669 1.036,5.15931 1.98435,10.33588 3.02605,15.49415 0.53824,2.44949 0.84182,4.9521 1.72138,7.31034 0.77796,1.99333 1.9693,3.62947 3.72111,4.85137 1.67737,0.98028 3.66361,0.98737 5.55127,1.0555 2.47307,-0.40516 7.05515,-2.75945 -2.91609,2.24059 -0.45562,0.22847 0.83783,-0.58205 1.23572,-0.90059 0.99532,-0.79682 1.74125,-1.54319 2.66638,-2.42156 2.57044,-2.48844 4.89596,-5.23427 6.95282,-8.15991 1.68942,-2.55604 2.12109,-5.50706 2.36892,-8.48964 0.11352,-3.00052 0.20831,-6.00242 0.45434,-8.99586 0.24781,-2.69331 1.01674,-5.28553 1.75267,-7.87532 0.74227,-2.64292 1.68841,-5.21602 2.81246,-7.71848 0.99277,-2.33991 2.36152,-4.45398 4.0173,-6.37182 0.97269,-1.10968 2.11388,-2.04883 3.39049,-2.78782 7.16982,-4.15045 4.63836,-3.06636 7.97523,-4.44068 1.625,-0.52732 3.29778,-0.85787 4.95677,-1.25278 1.90019,-0.36701 3.80565,-0.65016 5.73635,-0.79093 1.05345,0.0579 2.27335,-0.34235 3.30369,0.0394 2.13608,0.79147 3.19374,3.04611 4.28785,4.82343 3.86249,7.36886 7.1491,15.03577 10.25258,22.75155 2.21807,5.9512 4.03102,12.04238 5.96181,18.09023 1.06941,2.54543 1.57771,5.95389 3.40006,8.09525 0.19466,0.14979 0.36853,0.33143 0.58398,0.44937 1.33093,0.72852 3.76353,0.66908 5.24563,0.71527 2.41106,0.007 4.85724,0.20035 7.22297,-0.39183 0.44408,-0.11116 0.87185,-0.27953 1.30777,-0.4193 2.53844,-1.09897 4.0399,-1.79693 -4.21582,2.52452 -0.28789,0.1507 0.52548,-0.38556 0.76023,-0.61025 0.85358,-0.81703 1.03086,-1.71483 1.29139,-2.83312 0.56401,-4.90493 0.45866,-9.86299 0.42556,-14.79255 -0.0576,-4.36154 -0.0642,-8.72331 -0.0792,-13.08512 0.0105,-3.79782 -0.002,-7.59544 -0.0607,-11.39282 -0.0314,-2.96955 0.0254,-5.93895 0.0308,-8.90844 0.006,-1.65409 -0.007,-3.3081 -0.0218,-4.96209 -0.006,-0.6831 -0.052,-1.7716 0.0748,-2.47157 0.0585,-0.32298 0.19309,-0.62743 0.28963,-0.94114 0.165,-0.26033 0.29853,-0.5435 0.49498,-0.78099 0.19041,-0.23018 0.3996,-0.45733 0.65606,-0.6105 2.85445,-1.70484 5.01886,-3.73558 8.09067,-4.27518 0.63444,-0.11145 1.40087,-0.16139 2.04187,-0.21521 2.25526,-0.10701 4.51385,-0.0578 6.77059,-0.0481 2.54267,0.34246 4.29045,1.25995 6.10082,3.03301 1.98656,2.10081 2.92782,4.84045 3.90496,7.50195 1.82493,5.53613 4.12451,10.90005 6.39659,16.26341 2.23129,5.50186 4.20571,11.10426 6.17072,16.70553 1.64661,4.34956 3.32593,8.68564 4.82907,13.08747 0.94964,3.42711 2.4054,6.67292 3.91585,9.8823 0.61571,0.81998 1.00887,1.52192 1.92364,2.05444 2.49499,1.45243 7.21763,1.47848 10.00229,1.65992 4.90455,-0.0521 10.11047,0.81522 14.94401,-0.34904 0.64228,-0.15471 1.25845,-0.40264 1.88768,-0.60396 -1.55461,0.84092 -3.01809,1.87815 -4.66383,2.52276 -0.56348,0.22071 0.9465,-0.76452 1.34272,-1.22194 2.06573,-2.38476 2.8703,-5.56192 3.67462,-8.5243 1.15921,-4.93112 1.8157,-9.95933 2.24111,-15.00121 0.41411,-3.70028 0.61664,-7.41588 0.70794,-11.13663 0.0229,-3.17216 0.0178,-6.33664 0.22117,-9.50302 0.17084,-1.95757 0.75788,-3.85416 1.47339,-5.6754 0.52326,-1.26527 1.33925,-2.33172 2.53295,-3.02317 2.3515,-1.36212 4.7175,-2.69906 7.07625,-4.04858 0.70891,-0.30792 1.40137,-0.62491 2.1294,-0.88475 0,0 -5.86088,4.601 -5.86088,4.601 l 0,0 c -0.69927,0.29753 -1.39713,0.59877 -2.07129,0.95093 1.89346,-1.1011 3.79037,-2.1963 5.68039,-3.30332 0.21349,-0.12504 -0.43535,0.23531 -0.65062,0.35728 -0.93679,0.53075 -1.63757,1.24753 -2.08593,2.2432 -0.78125,1.73635 -1.34671,3.58936 -1.61027,5.47668 -0.28323,3.17535 -0.39148,6.35378 -0.38604,9.54251 -0.0835,3.72753 -0.14234,7.46132 -0.64826,11.16233 -0.50987,5.08801 -1.29549,10.14887 -2.30145,15.16211 -0.76273,3.0247 -1.49701,6.26542 -3.3998,8.82608 -2.11744,2.84951 -6.76134,4.52778 -9.14705,5.90518 -0.63366,0.16548 -1.25775,0.3733 -1.90098,0.49644 -4.86455,0.93127 -9.98911,0.0533 -14.89445,0.12137 -3.14693,-0.19746 -7.75812,-0.11126 -10.52723,-1.88004 -0.94671,-0.60471 -1.41806,-1.44434 -2.05348,-2.32789 -1.48694,-3.25047 -2.98029,-6.51854 -3.91727,-9.97678 -1.42695,-4.43167 -3.05475,-8.78766 -4.71312,-13.13752 -1.96018,-5.59458 -3.81052,-11.23257 -6.03499,-16.72992 -2.26777,-5.36209 -4.68575,-10.67193 -6.64165,-16.15766 -0.99011,-2.52978 -1.91807,-5.16993 -3.84897,-7.15737 -1.67429,-1.57033 -3.44867,-2.43961 -5.7759,-2.57555 -2.24755,-0.0166 -4.50107,-0.0495 -6.74341,0.1281 -0.75669,0.0935 -1.23306,0.12388 -1.97202,0.3298 -0.29182,0.0813 -1.11127,0.46829 -0.85608,0.30504 1.8155,-1.1615 3.70309,-2.20626 5.55393,-3.31057 0.2431,-0.14505 -0.50745,0.25873 -0.73071,0.43277 -0.21953,0.17113 -0.39115,0.39614 -0.58672,0.5942 -0.13549,0.2563 -0.32207,0.49154 -0.40646,0.76889 -0.21346,0.70153 -0.16084,1.73381 -0.16695,2.42826 -0.0146,1.66145 -0.028,3.32291 -0.0221,4.98446 0.005,2.95904 0.0617,5.91799 0.0304,8.87709 -0.0569,3.81494 -0.0685,7.63013 -0.0455,11.44546 0.002,4.37378 0.0305,8.74752 0.008,13.12131 -0.0138,4.93996 0.0841,9.88992 -0.1923,14.82285 -0.11702,0.88171 -0.13571,1.65055 -0.51531,2.46193 -0.17205,0.36774 -0.91572,1.33608 -1.24513,1.53888 -6.36411,3.91816 -4.86933,3.29696 -8.50418,4.62109 -2.85151,0.72718 -5.75187,0.75515 -8.68179,0.63282 -2.15589,-0.0934 -4.58946,-0.0423 -6.23065,-1.65635 -0.19907,-0.25713 -0.42794,-0.49375 -0.59722,-0.7714 -0.32229,-0.52859 -0.71399,-1.62656 -0.90174,-2.16382 -0.6403,-1.83224 -1.22785,-3.68496 -1.7947,-5.54088 -1.80882,-6.07995 -3.62267,-12.16451 -5.77585,-18.13317 -2.94304,-7.72173 -6.15041,-15.39517 -10.28235,-22.56491 -1.00005,-1.41358 -1.60616,-2.63914 -3.02217,-3.60269 -1.31597,-0.89547 -2.94357,-0.4918 -4.41112,-0.43417 -1.91967,0.18641 -3.82305,0.48146 -5.70576,0.90511 -1.63602,0.38488 -3.29925,0.6994 -4.85643,1.35383 -2.75627,1.34786 -0.60058,0.31647 4.76785,-2.83748 0.28763,-0.16898 -0.59389,0.3051 -0.87997,0.47669 -0.9697,0.58162 -1.87305,1.26926 -2.63134,2.11222 -1.71048,1.82175 -3.1204,3.8757 -4.12402,6.17359 -1.1444,2.46772 -2.12781,5.00226 -2.87074,7.62194 -0.71912,2.55502 -1.50539,5.10628 -1.80572,7.75268 -0.31792,2.98837 -0.37732,5.99545 -0.48841,8.99675 -0.20288,3.07866 -0.5724,6.14459 -2.20981,8.84005 -2.00132,3.00257 -4.40464,5.74231 -6.9313,8.31192 -3.76508,3.68769 -8.24867,7.77668 -13.71856,8.1758 -2.01643,-0.10816 -4.09578,-0.21652 -5.81267,-1.40558 -1.79013,-1.38002 -3.07461,-3.12629 -3.93042,-5.22707 -0.89972,-2.41549 -1.20035,-4.96263 -1.64423,-7.49196 -0.94463,-5.1968 -1.78281,-10.41309 -2.85365,-15.58677 -0.93566,-4.87469 -1.72417,-9.80376 -3.19529,-14.55312 -0.67204,-1.96585 -1.59882,-3.68994 -3.68104,-4.41633 -2.25462,-0.51969 -4.60659,-0.38529 -6.88299,-0.0349 -2.6198,0.73523 -5.37965,2.85713 4.31711,-2.86369 0.23845,-0.14068 -0.49428,0.25306 -0.72209,0.41038 -0.42988,0.29689 -1.01803,0.87172 -1.39141,1.21913 -1.77865,2.15031 -2.83946,4.68006 -3.09834,7.47461 -0.34207,3.76038 -0.22019,7.53348 -0.24247,11.30567 -0.0257,4.99397 -0.0228,9.9881 -0.0307,14.98213 0.0194,5.17821 0.1211,10.35975 -0.0548,15.53594 -0.078,1.24596 -0.0877,2.13285 -0.32344,3.34134 -0.39652,2.03305 -1.30131,3.91376 -2.38709,5.6612 -1.37401,2.06606 -2.77889,4.17259 -4.52516,5.95197 -2.46813,2.51495 -6.0094,3.86289 -8.93817,5.55447 -1.21343,0.40143 -1.51132,0.58879 -2.80013,0.66168 -1.9112,0.10809 -3.83041,-0.38433 -5.71678,-0.58266 -2.93045,-0.49346 -5.861,-0.99354 -8.76197,-1.64217 -0.87852,-0.21874 -1.27863,-0.26162 -2.07843,-0.67336 -1.22838,-0.63238 -2.15799,-1.73142 -3.11776,-2.68897 -1.85728,-2.34018 -2.26256,-3.44121 -2.10543,-6.47719 0.0135,-2.77146 0.0242,-5.54441 -0.061,-8.31481 0,0 6.66239,-3.39466 6.66239,-3.39466 z"
       inkscape:connector-curvature="0" />
  </g>
</svg>
