<?xml version="1.0" encoding="UTF-8" standalone="no"?>
<!-- Created with Inkscape (http://www.inkscape.org/) -->

<svg
   xmlns:dc="http://purl.org/dc/elements/1.1/"
   xmlns:cc="http://creativecommons.org/ns#"
   xmlns:rdf="http://www.w3.org/1999/02/22-rdf-syntax-ns#"
   xmlns:svg="http://www.w3.org/2000/svg"
   xmlns="http://www.w3.org/2000/svg"
   xmlns:sodipodi="http://sodipodi.sourceforge.net/DTD/sodipodi-0.dtd"
   xmlns:inkscape="http://www.inkscape.org/namespaces/inkscape"
   width="279.06952"
   height="184.91156"
   id="svg2"
   version="1.1"
   inkscape:version="0.48.4 r9939"
   sodipodi:docname="basechart-good.svg">
  <defs
     id="defs4" />
  <sodipodi:namedview
     id="base"
     pagecolor="#ffffff"
     bordercolor="#666666"
     borderopacity="1.0"
     inkscape:pageopacity="0.0"
     inkscape:pageshadow="2"
     inkscape:zoom="1.979899"
     inkscape:cx="84.89039"
     inkscape:cy="56.457496"
     inkscape:document-units="px"
     inkscape:current-layer="layer1"
     showgrid="false"
     inkscape:snap-page="true"
     inkscape:window-width="1600"
     inkscape:window-height="849"
     inkscape:window-x="-3"
     inkscape:window-y="28"
     inkscape:window-maximized="1"
     fit-margin-top="0"
     fit-margin-left="0"
     fit-margin-right="0"
     fit-margin-bottom="0" />
  <metadata
     id="metadata7">
    <rdf:RDF>
      <cc:Work
         rdf:about="">
        <dc:format>image/svg+xml</dc:format>
        <dc:type
           rdf:resource="http://purl.org/dc/dcmitype/StillImage" />
        <dc:title></dc:title>
      </cc:Work>
    </rdf:RDF>
  </metadata>
  <g
     inkscape:label="Layer 1"
     inkscape:groupmode="layer"
     id="layer1"
     transform="translate(-129.52116,-249.96357)">
    <path
       style="fill:#000000;fill-opacity:1;fill-rule:nonzero;stroke:none"
       id="path3001"
       d="m 136.14865,249.9636 c -0.46993,9.91255 0.0504,19.83027 0.49832,29.73249 1.38844,22.90717 2.74849,45.81539 3.74392,68.74343 0.6532,17.87418 1.13113,35.75475 1.42511,53.63839 0.0836,6.41445 0.3026,12.82737 0.33531,19.24246 -0.0408,2.71861 0.10653,5.44139 -0.002,8.15851 0.25555,0.098 -0.31431,1.05455 0.0447,1.29438 0.12121,0.081 0.28898,-0.0397 0.43197,-0.0681 0.65393,-0.12948 1.30259,-0.28556 1.95838,-0.40523 1.5536,-0.2835 3.11058,-0.54863 4.66903,-0.80414 2.72092,-0.4461 5.44589,-0.8671 8.16883,-1.30065 24.22692,-3.85317 48.70045,-6.05538 73.19082,-7.33558 6.05579,-0.31656 12.11689,-0.52154 18.17534,-0.78232 33.61406,-1.16544 67.24846,-1.42363 100.87858,-1.70932 14.31043,-0.11029 28.62058,-0.25159 42.92984,-0.46572 3.8879,-0.0637 7.77638,-0.031 11.66459,-0.0375 1.44313,-0.002 2.88622,-0.0135 4.32929,-0.0253 0,0 -5.96762,4.33563 -5.96762,4.33563 l 0,0 c -1.419,-0.0122 -2.83802,-0.0245 -4.25708,-0.0277 -3.83117,-0.0119 -7.66305,0.0105 -11.49331,-0.0893 -13.8415,-0.31629 -27.68589,-0.48269 -41.53084,-0.54593 -33.42193,-0.10682 -66.85477,-0.008 -100.25675,1.28152 -6.09476,0.2911 -12.19246,0.52622 -18.2843,0.8733 -24.89507,1.4184 -49.76822,3.77069 -74.31549,8.24845 -2.87699,0.55369 -5.75722,1.09081 -8.63097,1.66108 -1.68508,0.33439 -3.353,0.75627 -5.04515,1.05281 -2.12135,0.37175 -3.6687,0.66591 -3.28627,-1.8255 0.23005,-2.71888 0.0499,-5.46001 0.15019,-8.18507 0.0699,-6.52424 0.30491,-13.04627 0.32318,-19.57142 0.0858,-18.01265 0.056,-36.02948 -0.60828,-54.03288 -0.35959,-9.26185 -0.53929,-14.91016 -1.06186,-24.20011 -0.83144,-14.78083 -2.14368,-29.52781 -3.13283,-44.2979 -0.74001,-9.71515 -1.46586,-19.43154 -1.67214,-29.17609 0,0 6.62718,-3.37672 6.62718,-3.37672 z"
       inkscape:connector-curvature="0" />
    <path
       style="fill:#000000;fill-opacity:1;fill-rule:nonzero;stroke:none"
       id="path3002"
       d="m 152.44877,391.82402 c 0.88108,1.96393 2.20958,3.62521 3.83547,5.01749 0.61788,0.3731 1.45549,1.06663 2.24542,1.01623 0.76789,-0.049 2.84956,-1.46171 1.97042,-1.04146 -1.74663,0.83493 -3.4346,1.7874 -5.1519,2.6811 2.33293,-2.41832 3.68887,-5.50106 4.68661,-8.6608 1.04504,-4.59388 1.75422,-9.26028 2.57796,-13.89911 1.49529,-7.91444 2.81086,-15.85233 3.63767,-23.86536 0.4532,-8.30066 1.77103,-16.50914 2.88103,-24.73714 0.77088,-4.55956 0.67898,-9.27747 1.80029,-13.77634 0.39582,-1.27615 1.04357,-2.43132 2.24365,-3.1044 7.28485,-4.08582 4.69003,-3.28913 8.48199,-4.31075 2.65484,-0.62735 5.39069,-0.86463 8.11343,-0.80994 0.45028,0.0934 0.93653,0.0806 1.35085,0.28012 2.76692,1.33252 4.08459,5.71434 4.99817,8.36537 1.04123,3.04964 1.89162,6.15661 2.56547,9.30587 0.59235,3.30603 0.87124,6.65723 1.34713,9.97982 0.36509,2.64189 1.95186,4.0068 4.13588,5.28677 2.22197,1.05994 4.64903,1.53131 7.07731,1.81292 1.8472,0.17619 3.7039,0.21179 5.55824,0.19814 0.18042,-0.002 0.37471,0.0636 0.54125,-0.006 0.16657,-0.0694 0.54474,-0.46482 0.38527,-0.38035 -1.99376,1.05602 -3.88672,2.3001 -5.90679,3.30488 -0.25525,0.12696 0.38706,-0.41969 0.56075,-0.64575 0.43621,-0.56775 0.7648,-1.14544 1.13745,-1.75617 1.09872,-1.93078 1.85294,-4.02635 2.83999,-6.01266 0.72628,-1.60962 1.59018,-3.14748 2.42313,-4.70217 0.92936,-1.67246 0.99043,-3.58751 1.17611,-5.445 0.18443,-2.35562 0.63711,-4.68407 1.27605,-6.95639 0.51545,-1.88568 1.21045,-3.70691 1.95769,-5.5099 0.90252,-2.42331 1.84731,-4.81356 3.04556,-7.10757 1.19482,-2.21994 2.62155,-4.3014 4.40555,-6.08557 3.34603,-2.85185 6.81443,-4.91347 11.0436,-5.19466 1.73324,-0.18985 2.66099,0.17156 4.07519,1.13478 1.37752,1.30527 2.54423,2.73251 3.92511,4.05178 1.48565,1.43654 2.90979,2.48737 4.90596,3.05309 1.96988,0.41466 3.99463,0.39454 5.9977,0.41241 2.25992,0.0582 4.50671,0.005 6.73983,-0.35747 0.3148,-0.10837 0.64135,-0.18725 0.9444,-0.32511 0.33511,-0.15245 1.28378,-0.72149 0.96221,-0.54224 -1.78658,0.99582 -3.53377,2.06539 -5.35723,2.99197 -0.36601,0.18598 0.66017,-0.48993 0.96798,-0.76161 0.75848,-0.66948 0.95017,-0.9676 1.58558,-1.74448 1.45555,-2.13444 2.94445,-4.23586 4.49823,-6.30102 1.59379,-2.02457 3.22515,-4.01933 4.9158,-5.96377 1.58102,-1.78368 3.53519,-3.14773 5.50253,-4.46476 3.81933,-2.5629 7.71869,-5.11399 12.0537,-6.69551 1.65108,-0.51681 3.38266,-0.58519 5.09764,-0.63618 1.54367,-0.0324 3.08778,-0.0106 4.63162,-0.006 1.40444,0.0447 2.83314,0.20146 4.2123,0.48542 1.50436,0.34362 3.04741,0.42958 4.58393,0.49419 1.52542,0.0487 3.05186,0.0457 4.57788,0.0431 1.45592,0.005 2.91183,-0.002 4.36774,-0.008 1.3143,-0.17705 2.48896,-0.85654 3.70919,-1.34058 1.46921,-0.73063 3.10402,-0.8476 4.68378,-1.16277 1.53078,-0.3012 3.0862,-0.42302 4.64191,-0.49782 1.41073,0.11061 2.61029,-0.246 3.83936,-0.90053 -11.46928,6.70855 -4.58682,2.58883 -1.96742,0.97924 3.54532,-2.23521 6.98863,-4.40647 10.95313,-5.66149 1.29973,-0.30784 2.50479,-0.87615 3.80889,-1.16141 1.45481,-0.28668 2.94261,-0.31851 4.42021,-0.35324 1.29938,-0.0185 2.59902,-0.0125 3.89851,-0.0119 1.24832,0.0412 2.43432,-0.39449 3.64054,-0.6519 1.53835,-0.7186 3.09674,-1.36479 4.6739,-1.99073 0.248,-0.11696 0.50035,-0.22512 0.744,-0.35088 0.233,-0.12028 0.45742,-0.25651 0.685,-0.38675 3.81129,-2.18119 -7.8139,5.0601 -4.45529,2.44122 0.18577,-0.14485 0.36269,-0.3007 0.54403,-0.45105 0.93709,-0.75183 1.61135,-1.70019 1.97917,-2.83768 0.10384,-1.11756 0.48355,-1.95431 1.21547,-2.79806 2.83261,-2.50555 6.47162,-4.07233 9.66494,-5.94102 1.90472,-1.11462 -3.84446,2.16826 -5.76669,3.25239 0,0 6.92562,-2.75341 6.92562,-2.75341 l 0,0 c -5.85399,3.48852 -11.74549,6.97023 -1.29166,0.84066 0.23877,-0.14 -0.4873,0.26322 -0.72342,0.40766 -0.55219,0.33778 -0.81001,0.54587 -1.32681,0.91984 -0.19161,0.13865 -0.38426,0.27587 -0.57639,0.41381 -0.90489,0.77365 -1.29211,1.21836 -1.35853,2.4314 -0.27311,1.25484 -0.85133,2.3985 -1.83073,3.25699 -2.95628,2.70646 -6.65652,4.48074 -10.2765,6.1469 -1.59976,0.61962 -3.1226,1.43165 -4.76867,1.91922 -1.23437,0.28871 -2.46844,0.61057 -3.75033,0.52637 -1.28977,-0.006 -2.57975,-0.0134 -3.86928,0.0187 -1.45012,0.0471 -2.91072,0.11775 -4.32113,0.48815 -1.26317,0.37678 -2.49516,0.85476 -3.76977,1.19747 -2.84886,1.00443 -9.20943,4.51851 1.85234,-1.58842 -3.56194,2.17381 -7.07789,4.4184 -10.7894,6.34309 -1.30327,0.53678 -2.60945,0.71322 -4.01914,0.67563 -1.53235,0.0907 -3.05897,0.25243 -4.56452,0.56138 -1.58144,0.27325 -3.14909,0.58629 -4.60609,1.29422 -1.25072,0.52453 -2.50267,1.13814 -3.89194,1.11713 -1.45296,-0.003 -2.9059,-0.006 -4.35886,1.8e-4 -1.52805,-0.005 -3.0568,-0.0105 -4.58347,-0.083 -1.5634,-0.0865 -3.12511,-0.22234 -4.6576,-0.55961 -1.36503,-0.20755 -2.74219,-0.40558 -4.12588,-0.3882 -1.53597,-0.007 -3.07248,-0.0163 -4.60804,0.0264 -1.67419,0.0751 -3.35876,0.21571 -4.9386,0.82198 -0.76112,0.30559 -0.97836,0.37902 -1.7351,0.742 -0.30655,0.14704 -1.20135,0.63607 -0.9097,0.46131 10.07986,-6.03996 5.43719,-3.24188 3.30207,-1.7744 -1.96051,1.28656 -3.93475,2.58184 -5.56667,4.28506 -1.73675,1.90853 -3.33117,3.94141 -4.98168,5.92421 -1.53709,2.0654 -3.07051,4.11926 -4.45037,6.29445 -0.56004,0.76003 -0.85767,1.22379 -1.53115,1.89523 -2.14978,2.1433 -6.75831,4.3045 -8.2244,5.14306 -0.33243,0.19014 -0.6934,0.32963 -1.05643,0.45158 -0.32589,0.10947 -0.66866,0.16014 -1.00298,0.24021 -2.25513,0.28608 -4.52017,0.28935 -6.79098,0.25493 -2.06227,-0.0196 -4.15219,-0.0162 -6.1562,-0.57099 -1.95518,-0.68378 -3.59159,-1.89552 -5.05858,-3.35247 -1.34548,-1.26613 -2.52355,-2.68486 -3.90899,-3.90007 -1.33255,-0.81317 -2.24974,-0.90702 -3.79301,-0.72835 -0.74435,0.0848 -1.47122,0.18244 -2.18383,0.42831 -0.25881,0.0893 -0.99451,0.45108 -0.76205,0.30644 1.55843,-0.96968 7.99082,-4.77402 4.74807,-2.78867 -1.88925,1.65553 -3.33517,3.70959 -4.56873,5.89011 -1.21017,2.25135 -2.18793,4.59196 -3.00699,7.01272 -0.73747,1.7904 -1.46958,3.58204 -1.99953,5.4478 -0.70979,2.21509 -1.15379,4.51658 -1.35588,6.83396 -0.17569,1.91284 -0.13039,3.91753 -0.99978,5.67997 -0.81145,1.57159 -1.7487,3.07831 -2.44703,4.70818 -1.06293,1.96604 -1.81538,4.07058 -2.83932,6.05616 -2.04854,3.60426 -4.45282,6.87139 -9.52858,6.87475 -1.84579,-0.0426 -3.69272,-0.11156 -5.5278,-0.3284 -2.49872,-0.34509 -4.99564,-0.88155 -7.24444,-2.0709 -2.2252,-1.38251 -4.13034,-3.11652 -4.44474,-5.86648 -0.42376,-3.31342 -0.68091,-6.65222 -1.30305,-9.93821 -0.683,-3.12514 -1.49244,-6.22353 -2.44218,-9.27877 -0.80613,-2.42103 -1.99219,-6.62609 -4.69781,-7.63449 -0.4007,-0.14935 -0.84644,-0.12252 -1.26967,-0.18378 -2.69569,0.031 -5.40343,0.26031 -8.0065,1.00291 -3.22887,1.07504 -1.12603,0.46686 4.29358,-2.87164 0.24765,-0.15255 -0.53432,0.23399 -0.78372,0.38366 -0.88915,0.53359 -1.3753,1.27458 -1.74298,2.23455 -0.51669,1.58695 -0.75265,3.1433 -0.99944,4.79551 -0.45142,3.0221 -0.82917,6.05302 -1.23869,9.08108 -1.1853,8.21294 -2.46384,16.42311 -2.89876,24.72039 -0.31766,2.91521 -0.55778,5.32562 -0.96889,8.23876 -0.73598,5.21514 -1.73189,10.39167 -2.51335,15.59986 -0.76299,4.6316 -1.36735,9.29477 -2.355,13.88519 -0.16305,0.59361 -0.29928,1.19525 -0.48915,1.78083 -0.84812,2.61571 -2.27662,5.08362 -3.98964,7.21744 -2.45358,1.57451 -4.8765,3.19785 -7.36074,4.72353 -0.7921,0.48647 -1.45402,0.71873 -2.38055,0.60107 -0.90352,-0.11474 -1.70237,-0.78118 -2.40301,-1.29261 -1.64801,-1.52186 -2.99986,-3.28386 -4.07833,-5.25362 0,0 6.54005,-3.67309 6.54005,-3.67309 z"
       inkscape:connector-curvature="0" />
  </g>
</svg>
